<svg width="272" height="28" viewBox="0 0 272 28" fill="none" xmlns="http://www.w3.org/2000/svg">
<path d="M154.118 14.7549C154.118 16.2223 153.904 17.3206 153.476 18.0498C153.047 18.7744 152.375 19.1367 151.459 19.1367C150.57 19.1367 149.907 18.7881 149.47 18.0908C149.032 17.3936 148.804 16.3454 148.786 14.9463V13.2373C148.786 11.7835 149 10.6989 149.429 9.9834C149.862 9.2679 150.534 8.91016 151.445 8.91016C152.343 8.91016 153.006 9.24967 153.435 9.92871C153.868 10.6077 154.095 11.6354 154.118 13.0117V14.7549ZM152.908 13.0254C152.908 11.9727 152.792 11.1979 152.56 10.7012C152.327 10.1999 151.956 9.94922 151.445 9.94922C150.949 9.94922 150.584 10.1953 150.352 10.6875C150.119 11.1751 149.998 11.9134 149.989 12.9023V14.9531C149.989 16.0013 150.11 16.7897 150.352 17.3184C150.593 17.8424 150.962 18.1045 151.459 18.1045C151.951 18.1045 152.313 17.8561 152.546 17.3594C152.778 16.8626 152.899 16.1038 152.908 15.083V13.0254ZM157.263 13.4082H158.035C158.532 13.4082 158.915 13.2555 159.184 12.9502C159.452 12.6449 159.587 12.2279 159.587 11.6992C159.587 10.5326 159.136 9.94922 158.233 9.94922C157.8 9.94922 157.461 10.1064 157.215 10.4209C156.969 10.7354 156.846 11.1478 156.846 11.6582H155.643C155.643 10.8607 155.884 10.2044 156.367 9.68945C156.855 9.16992 157.477 8.91016 158.233 8.91016C159.017 8.91016 159.639 9.15625 160.1 9.64844C160.56 10.1361 160.79 10.8288 160.79 11.7266C160.79 12.1868 160.669 12.6175 160.428 13.0186C160.191 13.415 159.881 13.7067 159.498 13.8936C160.437 14.2399 160.906 15.0169 160.906 16.2246C160.906 17.1133 160.658 17.8219 160.161 18.3506C159.669 18.8747 159.024 19.1367 158.227 19.1367C157.438 19.1367 156.8 18.8883 156.312 18.3916C155.829 17.8903 155.588 17.2181 155.588 16.375H156.798C156.798 16.9036 156.925 17.3252 157.181 17.6396C157.436 17.9495 157.785 18.1045 158.227 18.1045C158.678 18.1045 159.035 17.9518 159.3 17.6465C159.569 17.3411 159.703 16.8763 159.703 16.252C159.703 15.0443 159.131 14.4404 157.987 14.4404H157.263V13.4082Z" fill="#770302"/>
<path d="M123.488 14.7227C123.488 17.2383 123.121 19.1211 122.387 20.3711C121.652 21.6133 120.5 22.2344 118.93 22.2344C117.406 22.2344 116.27 21.6367 115.52 20.4414C114.77 19.2461 114.379 17.4492 114.348 15.0508V12.1211C114.348 9.62891 114.715 7.76953 115.449 6.54297C116.191 5.31641 117.344 4.70312 118.906 4.70312C120.445 4.70312 121.582 5.28516 122.316 6.44922C123.059 7.61328 123.449 9.375 123.488 11.7344V14.7227ZM121.414 11.7578C121.414 9.95312 121.215 8.625 120.816 7.77344C120.418 6.91406 119.781 6.48438 118.906 6.48438C118.055 6.48438 117.43 6.90625 117.031 7.75C116.633 8.58594 116.426 9.85156 116.41 11.5469V15.0625C116.41 16.8594 116.617 18.2109 117.031 19.1172C117.445 20.0156 118.078 20.4648 118.93 20.4648C119.773 20.4648 120.395 20.0391 120.793 19.1875C121.191 18.3359 121.398 17.0352 121.414 15.2852V11.7578ZM132.406 22H130.32V7.55078L126.734 9.15625V7.1875L132.078 4.85547H132.406V22Z" fill="white"/>
<path d="M271.061 15.0607C271.646 14.4749 271.646 13.5251 271.061 12.9393L261.515 3.3934C260.929 2.80761 259.979 2.80761 259.393 3.3934C258.808 3.97919 258.808 4.92893 259.393 5.51472L267.879 14L259.393 22.4853C258.808 23.0711 258.808 24.0208 259.393 24.6066C259.979 25.1924 260.929 25.1924 261.515 24.6066L271.061 15.0607ZM170 15.5H270V12.5H170V15.5Z" fill="white"/>
<path d="M0.939339 12.9393C0.353554 13.5251 0.353554 14.4749 0.939339 15.0607L10.4853 24.6066C11.0711 25.1924 12.0208 25.1924 12.6066 24.6066C13.1924 24.0208 13.1924 23.0711 12.6066 22.4853L4.12132 14L12.6066 5.51472C13.1924 4.92893 13.1924 3.97919 12.6066 3.3934C12.0208 2.80761 11.0711 2.80761 10.4853 3.3934L0.939339 12.9393ZM102 12.5L2 12.5V15.5L102 15.5V12.5Z" fill="white"/>
<line x1="144.5" y1="4" x2="144.5" y2="24" stroke="white"/>
</svg>
